{
  "accessors": [
    {
      "bufferView": 2,
      "componentType": 5126,
      "count": 15942,
      "max": [
        0.3321373462677002,
        0.2528742849826813,
        0.24577349424362183
      ],
      "min": [
        -2.44966983795166,
        -0.2414749711751938,
        -2.5007340908050537
      ],
      "type": "VEC3"
    },
    {
      "bufferView": 2,
      "byteOffset": 191304,
      "componentType": 5126,
      "count": 15942,
      "max": [
        1.0,
        1.0,
        1.0
      ],
      "min": [
        -1.0,
        -1.0,
        -1.0
      ],
      "type": "VEC3"
    },
    {
      "bufferView": 3,
      "componentType": 5126,
      "count": 15942,
      "max": [
        1.0,
        1.0,
        1.0,
        1.0
      ],
      "min": [
        -1.0,
        -1.0,
        -1.0,
        1.0
      ],
      "type": "VEC4"
    },
    {
      "bufferView": 1,
      "componentType": 5126,
      "count": 15942,
      "max": [
        0.9939742684364319,
        0.9680907726287842
      ],
      "min": [
        0.0056212544441223145,
        0.06641554832458496
      ],
      "type": "VEC2"
    },
    {
      "bufferView": 1,
      "byteOffset": 127536,
      "componentType": 5126,
      "count": 15942,
      "max": [
        0.0,
        1.0
      ],
      "min": [
        0.0,
        1.0
      ],
      "type": "VEC2"
    },
    {
      "bufferView": 1,
      "byteOffset": 255072,
      "componentType": 5126,
      "count": 15942,
      "max": [
        0.0,
        1.0
      ],
      "min": [
        0.0,
        1.0
      ],
      "type": "VEC2"
    },
    {
      "bufferView": 1,
      "byteOffset": 382608,
      "componentType": 5126,
      "count": 15942,
      "max": [
        0.9939742684364319,
        0.9680907726287842
      ],
      "min": [
        0.0056212544441223145,
        0.06641554832458496
      ],
      "type": "VEC2"
    },
    {
      "bufferView": 0,
      "componentType": 5125,
      "count": 34416,
      "type": "SCALAR"
    },
    {
      "bufferView": 2,
      "byteOffset": 382608,
      "componentType": 5126,
      "count": 8815,
      "max": [
        0.01078370213508606,
        1.5844823122024536,
        0.116737961769104
      ],
      "min": [
        -2.1283164024353027,
        -0.038312435150146484,
        -2.3247435092926025
      ],
      "type": "VEC3"
    },
    {
      "bufferView": 2,
      "byteOffset": 488388,
      "componentType": 5126,
      "count": 8815,
      "max": [
        1.0,
        1.0,
        1.0
      ],
      "min": [
        -1.0,
        -1.0,
        -1.0
      ],
      "type": "VEC3"
    },
    {
      "bufferView": 1,
      "byteOffset": 510144,
      "componentType": 5126,
      "count": 8815,
      "max": [
        0.9883474707603455,
        0.9949826598167419
      ],
      "min": [
        0.019615642726421356,
        0.0008445382118225098
      ],
      "type": "VEC2"
    },
    {
      "bufferView": 1,
      "byteOffset": 580664,
      "componentType": 5126,
      "count": 8815,
      "max": [
        0.0,
        1.0
      ],
      "min": [
        0.0,
        1.0
      ],
      "type": "VEC2"
    },
    {
      "bufferView": 1,
      "byteOffset": 651184,
      "componentType": 5126,
      "count": 8815,
      "max": [
        0.0,
        1.0
      ],
      "min": [
        0.0,
        1.0
      ],
      "type": "VEC2"
    },
    {
      "bufferView": 0,
      "byteOffset": 137664,
      "componentType": 5125,
      "count": 23379,
      "type": "SCALAR"
    },
    {
      "bufferView": 2,
      "byteOffset": 594168,
      "componentType": 5126,
      "count": 7552,
      "max": [
        -0.289763867855072,
        1.5847872495651245,
        1.0897504091262817
      ],
      "min": [
        -1.8275083303451538,
        0.41600674390792847,
        -2.2694931030273438
      ],
      "type": "VEC3"
    },
    {
      "bufferView": 2,
      "byteOffset": 684792,
      "componentType": 5126,
      "count": 7552,
      "max": [
        1.0,
        1.0,
        1.0
      ],
      "min": [
        -1.0,
        -1.0,
        -1.0
      ],
      "type": "VEC3"
    },
    {
      "bufferView": 1,
      "byteOffset": 721704,
      "componentType": 5126,
      "count": 7552,
      "max": [
        0.9915083646774292,
        0.9984757304191589
      ],
      "min": [
        0.0071088820695877075,
        0.002859055995941162
      ],
      "type": "VEC2"
    },
    {
      "bufferView": 1,
      "byteOffset": 782120,
      "componentType": 5126,
      "count": 7552,
      "max": [
        0.9913884997367859,
        1.0
      ],
      "min": [
        0.0,
        0.008316993713378906
      ],
      "type": "VEC2"
    },
    {
      "bufferView": 1,
      "byteOffset": 842536,
      "componentType": 5126,
      "count": 7552,
      "max": [
        0.0,
        1.0
      ],
      "min": [
        0.0,
        1.0
      ],
      "type": "VEC2"
    },
    {
      "bufferView": 0,
      "byteOffset": 231180,
      "componentType": 5125,
      "count": 18330,
      "type": "SCALAR"
    },
    {
      "bufferView": 2,
      "byteOffset": 775416,
      "componentType": 5126,
      "count": 4348,
      "max": [
        -0.40790486335754395,
        1.014801263809204,
        0.11953151226043701
      ],
      "min": [
        -1.6758159399032593,
        0.39218902587890625,
        -2.181455612182617
      ],
      "type": "VEC3"
    },
    {
      "bufferView": 2,
      "byteOffset": 827592,
      "componentType": 5126,
      "count": 4348,
      "max": [
        1.0,
        1.0,
        1.0
      ],
      "min": [
        -1.0,
        -1.0,
        -1.0
      ],
      "type": "VEC3"
    },
    {
      "bufferView": 1,
      "byteOffset": 902952,
      "componentType": 5126,
      "count": 4348,
      "max": [
        0.9965835809707642,
        0.9965835213661194
      ],
      "min": [
        0.003416461171582341,
        0.0043942928314208984
      ],
      "type": "VEC2"
    },
    {
      "bufferView": 1,
      "byteOffset": 937736,
      "componentType": 5126,
      "count": 4348,
      "max": [
        0.0,
        1.0
      ],
      "min": [
        0.0,
        1.0
      ],
      "type": "VEC2"
    },
    {
      "bufferView": 1,
      "byteOffset": 972520,
      "componentType": 5126,
      "count": 4348,
      "max": [
        0.0,
        1.0
      ],
      "min": [
        0.0,
        1.0
      ],
      "type": "VEC2"
    },
    {
      "bufferView": 0,
      "byteOffset": 304500,
      "componentType": 5125,
      "count": 8811,
      "type": "SCALAR"
    },
    {
      "bufferView": 2,
      "byteOffset": 879768,
      "componentType": 5126,
      "count": 8887,
      "max": [
        0.10903836786746979,
        1.7030216455459595,
        1.1456164121627808
      ],
      "min": [
        -2.2262465953826904,
        -0.03890356421470642,
        -2.754337787628174
      ],
      "type": "VEC3"
    },
    {
      "bufferView": 2,
      "byteOffset": 986412,
      "componentType": 5126,
      "count": 8887,
      "max": [
        1.0,
        1.0,
        1.0
      ],
      "min": [
        -1.0,
        -1.0,
        -1.0
      ],
      "type": "VEC3"
    },
    {
      "bufferView": 1,
      "byteOffset": 1007304,
      "componentType": 5126,
      "count": 8887,
      "max": [
        0.9757134318351746,
        1.0
      ],
      "min": [
        0.0,
        0.033703505992889404
      ],
      "type": "VEC2"
    },
    {
      "bufferView": 1,
      "byteOffset": 1078400,
      "componentType": 5126,
      "count": 8887,
      "max": [
        0.0,
        1.0
      ],
      "min": [
        0.0,
        1.0
      ],
      "type": "VEC2"
    },
    {
      "bufferView": 1,
      "byteOffset": 1149496,
      "componentType": 5126,
      "count": 8887,
      "max": [
        0.0,
        1.0
      ],
      "min": [
        0.0,
        1.0
      ],
      "type": "VEC2"
    },
    {
      "bufferView": 0,
      "byteOffset": 339744,
      "componentType": 5125,
      "count": 26454,
      "type": "SCALAR"
    },
    {
      "bufferView": 2,
      "byteOffset": 1093056,
      "componentType": 5126,
      "count": 3850,
      "max": [
        -0.13810250163078308,
        1.7900795936584473,
        1.1226110458374023
      ],
      "min": [
        -1.9742629528045654,
        0.4699905216693878,
        -1.9290691614151
      ],
      "type": "VEC3"
    },
    {
      "bufferView": 2,
      "byteOffset": 1139256,
      "componentType": 5126,
      "count": 3850,
      "max": [
        1.0,
        1.0,
        1.0
      ],
      "min": [
        -1.0,
        -1.0,
        -1.0
      ],
      "type": "VEC3"
    },
    {
      "bufferView": 1,
      "byteOffset": 1220592,
      "componentType": 5126,
      "count": 3850,
      "max": [
        0.9906535148620605,
        0.9897666573524475
      ],
      "min": [
        0.01264876127243042,
        0.008310079574584961
      ],
      "type": "VEC2"
    },
    {
      "bufferView": 1,
      "byteOffset": 1251392,
      "componentType": 5126,
      "count": 3850,
      "max": [
        0.0,
        1.0
      ],
      "min": [
        0.0,
        1.0
      ],
      "type": "VEC2"
    },
    {
      "bufferView": 1,
      "byteOffset": 1282192,
      "componentType": 5126,
      "count": 3850,
      "max": [
        0.0,
        1.0
      ],
      "min": [
        0.0,
        1.0
      ],
      "type": "VEC2"
    },
    {
      "bufferView": 0,
      "byteOffset": 445560,
      "componentType": 5125,
      "count": 6426,
      "type": "SCALAR"
    },
    {
      "bufferView": 2,
      "byteOffset": 1185456,
      "componentType": 5126,
      "count": 12794,
      "max": [
        -0.29054173827171326,
        1.9736919403076172,
        1.190354585647583
      ],
      "min": [
        -1.8482528924942017,
        0.5826886296272278,
        -2.726949691772461
      ],
      "type": "VEC3"
    },
    {
      "bufferView": 2,
      "byteOffset": 1338984,
      "componentType": 5126,
      "count": 12794,
      "max": [
        1.0,
        1.0,
        1.0
      ],
      "min": [
        -1.0,
        -1.0,
        -1.0
      ],
      "type": "VEC3"
    },
    {
      "bufferView": 1,
      "byteOffset": 1312992,
      "componentType": 5126,
      "count": 12794,
      "max": [
        0.9929177165031433,
        1.0
      ],
      "min": [
        0.0,
        0.013456225395202637
      ],
      "type": "VEC2"
    },
    {
      "bufferView": 1,
      "byteOffset": 1415344,
      "componentType": 5126,
      "count": 12794,
      "max": [
        0.0,
        1.0
      ],
      "min": [
        0.0,
        1.0
      ],
      "type": "VEC2"
    },
    {
      "bufferView": 1,
      "byteOffset": 1517696,
      "componentType": 5126,
      "count": 12794,
      "max": [
        0.8748556971549988,
        1.0
      ],
      "min": [
        0.0,
        0.7149550914764404
      ],
      "type": "VEC2"
    },
    {
      "bufferView": 0,
      "byteOffset": 471264,
      "componentType": 5125,
      "count": 34287,
      "type": "SCALAR"
    },
    {
      "bufferView": 2,
      "byteOffset": 1492512,
      "componentType": 5126,
      "count": 68,
      "max": [
        -0.006519705057144165,
        0.6619900465011597,
        -0.14058589935302734
      ],
      "min": [
        -2.110752582550049,
        0.21567495167255402,
        -2.0907161235809326
      ],
      "type": "VEC3"
    },
    {
      "bufferView": 2,
      "byteOffset": 1493328,
      "componentType": 5126,
      "count": 68,
      "max": [
        0.6916260123252869,
        0.9938937425613403,
        0.48299917578697205
      ],
      "min": [
        -0.6916564106941223,
        0.6838129758834839,
        -0.31968948245048523
      ],
      "type": "VEC3"
    },
    {
      "bufferView": 1,
      "byteOffset": 1620048,
      "componentType": 5126,
      "count": 68,
      "max": [
        0.5866650938987732,
        0.49809908866882324
      ],
      "min": [
        0.5335643887519836,
        0.22126919031143188
      ],
      "type": "VEC2"
    },
    {
      "bufferView": 1,
      "byteOffset": 1620592,
      "componentType": 5126,
      "count": 68,
      "max": [
        0.0,
        1.0
      ],
      "min": [
        0.0,
        1.0
      ],
      "type": "VEC2"
    },
    {
      "bufferView": 1,
      "byteOffset": 1621136,
      "componentType": 5126,
      "count": 68,
      "max": [
        0.0,
        1.0
      ],
      "min": [
        0.0,
        1.0
      ],
      "type": "VEC2"
    },
    {
      "bufferView": 0,
      "byteOffset": 608412,
      "componentType": 5125,
      "count": 156,
      "type": "SCALAR"
    },
    {
      "bufferView": 2,
      "byteOffset": 1494144,
      "componentType": 5126,
      "count": 697,
      "max": [
        -0.5308750867843628,
        0.8360073566436768,
        -0.3030281364917755
      ],
      "min": [
        -1.592594027519226,
        0.48008930683135986,
        -2.0667409896850586
      ],
      "type": "VEC3"
    },
    {
      "bufferView": 2,
      "byteOffset": 1502508,
      "componentType": 5126,
      "count": 697,
      "max": [
        1.0,
        1.0,
        1.0
      ],
      "min": [
        -1.0,
        -1.0,
        -1.0
      ],
      "type": "VEC3"
    },
    {
      "bufferView": 1,
      "byteOffset": 1621680,
      "componentType": 5126,
      "count": 697,
      "max": [
        0.0,
        1.0
      ],
      "min": [
        0.0,
        1.0
      ],
      "type": "VEC2"
    },
    {
      "bufferView": 1,
      "byteOffset": 1627256,
      "componentType": 5126,
      "count": 697,
      "max": [
        0.0,
        1.0
      ],
      "min": [
        0.0,
        1.0
      ],
      "type": "VEC2"
    },
    {
      "bufferView": 1,
      "byteOffset": 1632832,
      "componentType": 5126,
      "count": 697,
      "max": [
        0.9936181306838989,
        0.9936180710792542
      ],
      "min": [
        0.0063819075003266335,
        0.0038362741470336914
      ],
      "type": "VEC2"
    },
    {
      "bufferView": 0,
      "byteOffset": 609036,
      "componentType": 5125,
      "count": 1650,
      "type": "SCALAR"
    }
  ],
  "asset": {
    "extras": {
      "author": "Cybertron B-127 (https://sketchfab.com/robo-reboot)",
      "license": "CC-BY-4.0 (http://creativecommons.org/licenses/by/4.0/)",
      "source": "https://sketchfab.com/3d-models/curiosity-mars-rover-6cab1b08f20a4408960413ff44694b36",
      "title": "Curiosity Mars rover"
    },
    "generator": "Sketchfab-16.12.0",
    "version": "2.0"
  },
  "bufferViews": [
    {
      "buffer": 0,
      "byteLength": 615636,
      "name": "floatBufferViews",
      "target": 34963
    },
    {
      "buffer": 0,
      "byteLength": 1638408,
      "byteOffset": 615636,
      "byteStride": 8,
      "name": "floatBufferViews",
      "target": 34962
    },
    {
      "buffer": 0,
      "byteLength": 1510872,
      "byteOffset": 2254044,
      "byteStride": 12,
      "name": "floatBufferViews",
      "target": 34962
    },
    {
      "buffer": 0,
      "byteLength": 255072,
      "byteOffset": 3764916,
      "byteStride": 16,
      "name": "floatBufferViews",
      "target": 34962
    }
  ],
  "buffers": [
    {
      "byteLength": 4019988,
      "uri": "rover2.bin"
    }
  ],
  "extensionsUsed": [
    "KHR_materials_specular"
  ],
  "images": [
    {
      "uri": "textures/wheels_baseColor.png"
    },
    {
      "uri": "textures/wheels_normal.png"
    },
    {
      "uri": "textures/tex_02_baseColor.png"
    },
    {
      "uri": "textures/tex_01_baseColor.png"
    },
    {
      "uri": "textures/parts_AO_baseColor.png"
    },
    {
      "uri": "textures/tex_03_baseColor.png"
    },
    {
      "uri": "textures/tex_03_specularf0.png"
    },
    {
      "uri": "textures/tex_05_baseColor.png"
    },
    {
      "uri": "textures/tex_04_baseColor.png"
    },
    {
      "uri": "textures/tex_03a_baseColor.png"
    }
  ],
  "materials": [
    {
      "name": "wheels",
      "normalTexture": {
        "index": 1
      },
      "pbrMetallicRoughness": {
        "baseColorTexture": {
          "index": 0
        },
        "roughnessFactor": 0.5
      }
    },
    {
      "name": "tex_02",
      "pbrMetallicRoughness": {
        "baseColorTexture": {
          "index": 2
        },
        "metallicFactor": 0.0,
        "roughnessFactor": 0.5
      }
    },
    {
      "name": "tex_01",
      "pbrMetallicRoughness": {
        "baseColorTexture": {
          "index": 3
        },
        "metallicFactor": 0.0,
        "roughnessFactor": 0.5
      }
    },
    {
      "name": "parts_AO",
      "pbrMetallicRoughness": {
        "baseColorTexture": {
          "index": 4
        },
        "roughnessFactor": 0.75
      }
    },
    {
      "extensions": {
        "KHR_materials_specular": {
          "specularColorFactor": [
            1.0,
            1.0,
            1.0
          ],
          "specularFactor": 1.0,
          "specularTexture": {
            "index": 6,
            "texCoord": 1
          }
        }
      },
      "name": "tex_03",
      "pbrMetallicRoughness": {
        "baseColorTexture": {
          "index": 5
        },
        "roughnessFactor": 0.7
      }
    },
    {
      "name": "tex_05",
      "pbrMetallicRoughness": {
        "baseColorTexture": {
          "index": 7
        },
        "metallicFactor": 0.0,
        "roughnessFactor": 0.5
      }
    },
    {
      "name": "tex_04",
      "pbrMetallicRoughness": {
        "baseColorTexture": {
          "index": 8
        },
        "roughnessFactor": 0.75
      }
    },
    {
      "alphaMode": "BLEND",
      "name": "tex_03a",
      "pbrMetallicRoughness": {
        "baseColorTexture": {
          "index": 9
        },
        "metallicFactor": 0.0
      }
    },
    {
      "name": "internals",
      "pbrMetallicRoughness": {
        "baseColorFactor": [
          0.804087,
          0.751515,
          0.606071,
          1.0
        ],
        "metallicFactor": 0.0,
        "roughnessFactor": 0.5
      }
    }
  ],
  "meshes": [
    {
      "name": "Object_0",
      "primitives": [
        {
          "attributes": {
            "NORMAL": 1,
            "POSITION": 0,
            "TANGENT": 2,
            "TEXCOORD_0": 3,
            "TEXCOORD_1": 4,
            "TEXCOORD_2": 5,
            "TEXCOORD_3": 6
          },
          "indices": 7,
          "material": 0,
          "mode": 4
        }
      ]
    },
    {
      "name": "Object_1",
      "primitives": [
        {
          "attributes": {
            "NORMAL": 9,
            "POSITION": 8,
            "TEXCOORD_0": 10,
            "TEXCOORD_1": 11,
            "TEXCOORD_2": 12
          },
          "indices": 13,
          "material": 1,
          "mode": 4
        }
      ]
    },
    {
      "name": "Object_2",
      "primitives": [
        {
          "attributes": {
            "NORMAL": 15,
            "POSITION": 14,
            "TEXCOORD_0": 16,
            "TEXCOORD_1": 17,
            "TEXCOORD_2": 18
          },
          "indices": 19,
          "material": 2,
          "mode": 4
        }
      ]
    },
    {
      "name": "Object_3",
      "primitives": [
        {
          "attributes": {
            "NORMAL": 21,
            "POSITION": 20,
            "TEXCOORD_0": 22,
            "TEXCOORD_1": 23,
            "TEXCOORD_2": 24
          },
          "indices": 25,
          "material": 3,
          "mode": 4
        }
      ]
    },
    {
      "name": "Object_4",
      "primitives": [
        {
          "attributes": {
            "NORMAL": 27,
            "POSITION": 26,
            "TEXCOORD_0": 28,
            "TEXCOORD_1": 29,
            "TEXCOORD_2": 30
          },
          "indices": 31,
          "material": 4,
          "mode": 4
        }
      ]
    },
    {
      "name": "Object_5",
      "primitives": [
        {
          "attributes": {
            "NORMAL": 33,
            "POSITION": 32,
            "TEXCOORD_0": 34,
            "TEXCOORD_1": 35,
            "TEXCOORD_2": 36
          },
          "indices": 37,
          "material": 5,
          "mode": 4
        }
      ]
    },
    {
      "name": "Object_6",
      "primitives": [
        {
          "attributes": {
            "NORMAL": 39,
            "POSITION": 38,
            "TEXCOORD_0": 40,
            "TEXCOORD_1": 41,
            "TEXCOORD_2": 42
          },
          "indices": 43,
          "material": 6,
          "mode": 4
        }
      ]
    },
    {
      "name": "Object_7",
      "primitives": [
        {
          "attributes": {
            "NORMAL": 45,
            "POSITION": 44,
            "TEXCOORD_0": 46,
            "TEXCOORD_1": 47,
            "TEXCOORD_2": 48
          },
          "indices": 49,
          "material": 7,
          "mode": 4
        }
      ]
    },
    {
      "name": "Object_8",
      "primitives": [
        {
          "attributes": {
            "NORMAL": 51,
            "POSITION": 50,
            "TEXCOORD_0": 52,
            "TEXCOORD_1": 53,
            "TEXCOORD_2": 54
          },
          "indices": 55,
          "material": 8,
          "mode": 4
        }
      ]
    }
  ],
  "nodes": [
    {
      "children": [
        1
      ],
      "matrix": [
        1.0,
        0.0,
        0.0,
        0.0,
        0.0,
        2.220446049250313e-16,
        -1.0,
        0.0,
        0.0,
        1.0,
        2.220446049250313e-16,
        0.0,
        0.0,
        0.0,
        0.0,
        1.0
      ],
      "name": "Sketchfab_model"
    },
    {
      "children": [
        2
      ],
      "name": "root"
    },
    {
      "children": [
        3
      ],
      "matrix": [
        1.0,
        0.0,
        0.0,
        0.0,
        0.0,
        2.220446049250313e-16,
        1.0,
        0.0,
        0.0,
        -1.0,
        2.220446049250313e-16,
        0.0,
        0.0,
        0.0,
        0.0,
        1.0
      ],
      "name": "GLTF_SceneRootNode"
    },
    {
      "children": [
        4,
        5,
        6,
        7,
        8,
        9,
        10,
        11,
        12
      ],
      "matrix": [
        1.0,
        0.0,
        0.0,
        0.0,
        0.0,
        1.0,
        0.0,
        0.0,
        0.0,
        0.0,
        1.0,
        0.0,
        1.062891960144043,
        0.24909445643424988,
        1.0950909852981567,
        1.0
      ],
      "name": "MSL_0"
    },
    {
      "mesh": 0,
      "name": "Object_4"
    },
    {
      "mesh": 1,
      "name": "Object_5"
    },
    {
      "mesh": 2,
      "name": "Object_6"
    },
    {
      "mesh": 3,
      "name": "Object_7"
    },
    {
      "mesh": 4,
      "name": "Object_8"
    },
    {
      "mesh": 5,
      "name": "Object_9"
    },
    {
      "mesh": 6,
      "name": "Object_10"
    },
    {
      "mesh": 7,
      "name": "Object_11"
    },
    {
      "mesh": 8,
      "name": "Object_12"
    }
  ],
  "samplers": [
    {
      "magFilter": 9729,
      "minFilter": 9987,
      "wrapS": 10497,
      "wrapT": 10497
    }
  ],
  "scene": 0,
  "scenes": [
    {
      "name": "Sketchfab_Scene",
      "nodes": [
        0
      ]
    }
  ],
  "textures": [
    {
      "sampler": 0,
      "source": 0
    },
    {
      "sampler": 0,
      "source": 1
    },
    {
      "sampler": 0,
      "source": 2
    },
    {
      "sampler": 0,
      "source": 3
    },
    {
      "sampler": 0,
      "source": 4
    },
    {
      "sampler": 0,
      "source": 5
    },
    {
      "sampler": 0,
      "source": 6
    },
    {
      "sampler": 0,
      "source": 7
    },
    {
      "sampler": 0,
      "source": 8
    },
    {
      "sampler": 0,
      "source": 9
    }
  ]
}
